<svg width="61" height="25" viewBox="0 0 61 25" fill="none" xmlns="http://www.w3.org/2000/svg">
<path d="M2.05322 25V8.9H5.20422V25H2.05322ZM12.4124 13.247H14.8504C15.525 14.1057 15.985 14.9643 16.2304 15.823C16.4757 16.6817 16.5984 17.755 16.5984 19.043V25H13.5394V18.813C13.5394 17.3563 13.34 16.306 12.9414 15.662H10.3654V25H7.30638V13.247H9.69838L10.1124 14.075C10.4497 13.7683 10.764 13.5537 11.0554 13.431C11.362 13.3083 11.8144 13.247 12.4124 13.247ZM21.3493 8.9H24.6613V11.315H22.5913C22.07 11.637 21.8093 12.281 21.8093 13.247H24.2013V15.662H21.8093V25H18.7503V15.662H17.4853V13.247H18.7503C18.7503 11.2537 19.6167 9.80467 21.3493 8.9ZM31.9302 25H26.9162C25.3829 23.574 24.6162 21.6267 24.6162 19.158C24.6162 17.916 24.7849 16.835 25.1222 15.915C25.4749 14.995 26.0269 14.1057 26.7782 13.247H32.1602C32.9576 14.167 33.5019 15.064 33.7932 15.938C34.0846 16.7967 34.2302 17.87 34.2302 19.158C34.2302 21.6267 33.4636 23.574 31.9302 25ZM28.5492 22.585H30.2972C30.8492 21.5117 31.1252 20.2927 31.1252 18.928C31.1252 17.5633 30.8416 16.4747 30.2742 15.662H28.5492C27.9972 16.444 27.7212 17.5557 27.7212 18.997C27.7212 20.423 27.9972 21.619 28.5492 22.585ZM37.4637 8.9H42.9837V11.66H38.5677L38.4987 11.798L42.1787 18.514C42.93 19.8633 43.3057 20.8907 43.3057 21.596C43.3057 23.1447 42.792 24.2793 41.7647 25H35.6697V22.332H40.4307L40.4997 22.194L36.3597 14.765C35.7617 13.6917 35.4627 12.8177 35.4627 12.143C35.4627 10.5483 36.1297 9.46733 37.4637 8.9ZM44.7937 25V13.247H47.8297V25H44.7937ZM44.7937 8.9H47.8297V12.005H44.7937V8.9ZM53.6895 17.617L55.1155 13.247H58.3125L56.1275 18.974L58.4045 25H55.2535L53.6665 20.446H53.5745L52.0565 25H48.9055L51.1825 18.974L48.9975 13.247H52.1485L53.5975 17.617H53.6895Z" fill="white"/>
<rect x="0.949219" y="24" width="57.7734" height="1" fill="white"/>
</svg>
