<svg width="38" height="11" viewBox="0 0 38 11" fill="none" xmlns="http://www.w3.org/2000/svg">
<path d="M0.72 11V0.499999H2.775V11H0.72ZM7.47598 3.335H9.06598C9.50598 3.895 9.80598 4.455 9.96598 5.015C10.126 5.575 10.206 6.275 10.206 7.115V11H8.21098V6.965C8.21098 6.015 8.08098 5.33 7.82098 4.91H6.14098V11H4.14598V3.335H5.70598L5.97598 3.875C6.19598 3.675 6.40098 3.535 6.59098 3.455C6.79098 3.375 7.08598 3.335 7.47598 3.335ZM13.3044 0.499999H15.4644V2.075H14.1144C13.7744 2.285 13.6044 2.705 13.6044 3.335H15.1644V4.91H13.6044V11H11.6094V4.91H10.7844V3.335H11.6094C11.6094 2.035 12.1744 1.09 13.3044 0.499999ZM20.205 11H16.935C15.935 10.07 15.435 8.8 15.435 7.19C15.435 6.38 15.545 5.675 15.765 5.075C15.995 4.475 16.355 3.895 16.845 3.335H20.355C20.875 3.935 21.23 4.52 21.42 5.09C21.61 5.65 21.705 6.35 21.705 7.19C21.705 8.8 21.205 10.07 20.205 11ZM18 9.425H19.14C19.5 8.725 19.68 7.93 19.68 7.04C19.68 6.15 19.495 5.44 19.125 4.91H18C17.64 5.42 17.46 6.145 17.46 7.085C17.46 8.015 17.64 8.795 18 9.425ZM23.8138 0.499999H27.4138V2.3H24.5338L24.4888 2.39L26.8888 6.77C27.3788 7.65 27.6238 8.32 27.6238 8.78C27.6238 9.79 27.2888 10.53 26.6188 11H22.6438V9.26H25.7488L25.7938 9.17L23.0938 4.325C22.7038 3.625 22.5088 3.055 22.5088 2.615C22.5088 1.575 22.9438 0.869999 23.8138 0.499999ZM28.5942 11V3.335H30.5742V11H28.5942ZM28.5942 0.499999H30.5742V2.525H28.5942V0.499999ZM34.3958 6.185L35.3258 3.335H37.4108L35.9858 7.07L37.4708 11H35.4158L34.3808 8.03H34.3208L33.3308 11H31.2758L32.7608 7.07L31.3358 3.335H33.3908L34.3358 6.185H34.3958Z" fill="white"/>
</svg>
